<svg xmlns:xlink="http://www.w3.org/1999/xlink" xmlns="http://www.w3.org/2000/svg" enable-background="new 0 0 48 48" focusable="false" viewBox="0 0 48 48" width="16"  height="16" ><g><path d="M43.8 38.8c0-.1 0-.1.1-.2 0-.1 0-.1.1-.2 0-.1 0-.3 0-.4V10c0-.1 0-.3 0-.4 0-.1 0-.1-.1-.2 0-.1 0-.1-.1-.2 0-.1-.1-.1-.1-.2 0 0 0-.1-.1-.1-.1-.2-.3-.4-.6-.6 0 0-.1-.1-.1-.1-.1 0-.1-.1-.2-.1s-.1 0-.2-.1c-.1 0-.1 0-.2-.1-.1 0-.3 0-.4 0H6c-.1.1-.3.1-.4.1-.1 0-.1 0-.2.1-.1 0-.1 0-.2.1 0 0-.1 0-.2.1 0 0-.1 0-.1.1-.2.1-.4.3-.6.5 0 0-.1.1-.1.1 0 .1-.1.1-.1.2s0 .1-.1.2c0 .1 0 .1-.1.2.1.1.1.3.1.4v28c0 .1 0 .3 0 .4 0 .1 0 .1.1.2 0 .1 0 .1.1.2 0 .1.1.1.1.2 0 0 0 .1.1.1.1.2.3.4.6.6 0 0 .1.1.1.1.1 0 .1.1.2.1s.1 0 .2.1c.1 0 .1 0 .2.1.1 0 .3 0 .4 0h36c.1 0 .3 0 .4 0 .1 0 .1 0 .2-.1.1 0 .1 0 .2-.1.1 0 .1-.1.2-.1 0 0 .1 0 .1-.1.2-.1.4-.3.6-.6 0 0 .1-.1.1-.1-.1-.1-.1-.2-.1-.2zM24 25.2L10.8 12h26.3L24 25.2zM17.2 24L8 33.2V14.8l9.2 9.2zm2.8 2.8l2.6 2.6c.4.4.9.6 1.4.6s1-.2 1.4-.6l2.6-2.6 9.2 9.2H10.8l9.2-9.2zM30.8 24l9.2-9.2v18.3L30.8 24z" fill=""></path><path d="M0 0h48v48H0z" fill="none"></path></g></svg>