<?xml version="1.0" encoding="UTF-8"?>
<svg id="Layer_1" data-name="Layer 1" xmlns="http://www.w3.org/2000/svg" viewBox="0 0 226 50">
  <defs>
    <style>
      .cls-1 {
        opacity: .5;
      }

      .cls-1, .cls-2 {
        fill: #fff;
      }

      .cls-3 {
        fill: #b287f8;
        fill-rule: evenodd;
      }
    </style>
  </defs>
  <g>
    <path class="cls-2" d="M145.05,28.7l-.52.31c-1.06.59-2.3.73-3.47.4-1.18-.33-2.15-1.1-2.74-2.16-1.22-2.2-.43-4.99,1.76-6.21.67-.38,1.42-.57,2.22-.57.71,0,1.42.17,2.06.49l.52.25,1.72-1.72-.95-.52c-1.62-.89-3.5-1.1-5.28-.59-1.78.51-3.25,1.69-4.15,3.31-.89,1.62-1.1,3.5-.59,5.28.51,1.78,1.69,3.25,3.31,4.15,1.04.58,2.2.86,3.36.86,1.25,0,2.5-.33,3.6-1l.9-.53-1.75-1.72Z"/>
    <path class="cls-2" d="M157.22,41.89l-.06.05c-4.09,3.62-9.37,5.61-14.89,5.61h-.05c-6.01,0-11.66-2.34-15.92-6.59-4.27-4.26-6.62-9.92-6.62-15.95-.03-12.43,10.08-22.57,22.54-22.59,5.45,0,10.7,1.94,14.78,5.48l.06.05.64-.64-.07-.06c-9.78-8.46-24.63-7.39-33.1,2.38-4.1,4.73-6.11,10.78-5.66,17.04.45,6.25,3.31,11.96,8.04,16.06,4.26,3.69,9.72,5.72,15.37,5.72.03,0,.07,0,.1,0,5.69-.03,11.16-2.11,15.41-5.86l.07-.06-.64-.64Z"/>
    <path class="cls-2" d="M153.72,11.15h0c-3.7-3.05-8.38-4.47-13.15-4.01-4.78.47-9.08,2.76-12.13,6.47-3.05,3.7-4.47,8.37-4,13.15.47,4.78,2.76,9.08,6.47,12.13,3.21,2.63,7.25,4.08,11.38,4.08h.33v-1.38h-.33c-9.14,0-16.57-7.42-16.57-16.54s7.42-16.57,16.54-16.57c3.84,0,7.57,1.33,10.5,3.74l.22.19,1-1-.25-.25Z"/>
    <path class="cls-2" d="M149.26,15.45c-2.03-1.47-4.51-2.28-6.98-2.28-6.52,0-11.82,5.32-11.82,11.85,0,3.21,1.34,6.32,3.67,8.54l.06.06.48-.48-.06-.06c-2.16-2.05-3.39-4.83-3.46-7.81-.07-2.98,1.02-5.82,3.08-7.98,2.09-2.2,5.03-3.45,8.09-3.45,2.34,0,4.59.73,6.5,2.11l.06.04.48-.48-.08-.06Z"/>
    <path class="cls-2" d="M184.53,17.74c-.29-.46-.71-.85-1.19-1.11-.58-.3-1.2-.45-1.78-.42-.62-.03-1.24.11-1.78.4-.48.25-.9.62-1.22,1.05-.33.44-.56.92-.7,1.47-.15.6-.22,1.15-.22,1.68,0,.56.08,1.14.22,1.73.13.48.36.96.7,1.46.31.42.73.76,1.22.99.55.25,1.09.37,1.62.37.05,0,.1,0,.15,0,1.08,0,1.94-.28,2.54-.82.64-.61,1.07-1.4,1.24-2.28l.02-.1h-1.22v.07c-.15.6-.45,1.13-.87,1.53-.47.39-1.07.59-1.72.56-.42.03-.84-.08-1.22-.29-.39-.26-.65-.5-.83-.78-.21-.32-.38-.68-.49-1.05-.07-.35-.13-.7-.16-1.06h6.51v-.08c.03-.58-.02-1.18-.16-1.77-.15-.55-.38-1.09-.67-1.54ZM178.92,20.1c.06-.39.15-.73.26-1.02.14-.37.31-.66.54-.94.21-.27.48-.48.8-.64.35-.16.72-.24,1.1-.24s.72.08,1.07.24c.32.16.59.37.8.64.2.28.4.58.51.94h0c.12.33.18.68.23,1.02h-5.3ZM175.32,20.46h1.3v.09c-.06.63-.24,1.3-.54,1.99-.27.59-.62,1.09-1.04,1.49-.4.4-.9.72-1.49.96-.62.22-1.26.34-1.91.34-.05,0-.11,0-.16,0-.74,0-1.52-.17-2.3-.51-.68-.31-1.3-.79-1.77-1.38-.5-.62-.85-1.26-1.06-1.96-.47-1.53-.47-3.16,0-4.69.22-.72.58-1.39,1.06-1.99.44-.55,1.04-1.01,1.77-1.38.79-.36,1.62-.53,2.47-.51.56,0,1.12.08,1.65.25.53.17,1.04.42,1.46.73.47.35.83.75,1.1,1.21.32.52.51,1.08.56,1.66v.09s-1.26,0-1.26,0v-.07c-.1-.4-.27-.8-.5-1.16h0c-.22-.36-.49-.65-.8-.86-.29-.22-.62-.39-1.06-.54-.35-.12-.75-.19-1.19-.19-.65-.03-1.33.12-1.98.43-.52.26-.99.66-1.35,1.16-.37.51-.63,1.06-.79,1.63-.33,1.22-.33,2.52,0,3.74.17.64.43,1.17.79,1.63.35.48.8.86,1.35,1.14.62.31,1.3.46,1.98.43.55,0,1.04-.1,1.46-.3.43-.19.81-.46,1.11-.78.32-.34.57-.73.76-1.16.2-.49.33-.97.38-1.44v-.08ZM193.68,18.14c.1.39.14.82.14,1.38v5.53h-1.22v-5.39c0-.38-.04-.71-.11-1-.06-.3-.16-.57-.32-.77-.17-.25-.38-.42-.63-.52-.3-.12-.64-.19-1.02-.19-.35,0-.69.07-1.07.22-.29.13-.58.35-.8.58-.25.31-.41.6-.51.88-.16.41-.19.84-.19,1.13v5.03h-1.22v-8.66l1.22.1v1.21c.22-.4.55-.75.95-.99.51-.31,1.1-.48,1.7-.48.49-.03,1.03.05,1.52.23.37.14.71.37,1,.66.24.29.42.64.55,1.06ZM213.13,21.05c.03-.58-.03-1.18-.17-1.77-.15-.55-.38-1.09-.67-1.54-.66-1-1.8-1.59-2.97-1.53-.62-.03-1.24.11-1.78.4-.48.25-.9.62-1.22,1.05-.33.44-.56.92-.7,1.47-.15.6-.22,1.15-.22,1.68,0,.56.08,1.14.22,1.73.14.52.38,1.02.7,1.46.31.42.73.76,1.22.99.55.25,1.09.37,1.62.37.05,0,.1,0,.15,0,1.08,0,1.94-.28,2.54-.82.64-.61,1.07-1.4,1.24-2.28l.02-.1h-1.22v.07c-.15.6-.45,1.13-.87,1.53-.47.39-1.07.59-1.72.56-.42.03-.84-.08-1.22-.29-.39-.26-.65-.5-.83-.78-.21-.32-.38-.68-.49-1.05-.07-.35-.13-.7-.16-1.06h6.51v-.08ZM211.23,18.14c.2.28.4.58.51.94h0c.12.33.2.67.24,1.02h-5.31c.06-.39.15-.73.26-1.02.16-.42.33-.71.54-.94.21-.27.48-.48.8-.64.35-.16.72-.24,1.1-.24s.75.08,1.07.24c.32.16.59.37.8.64ZM205.09,16.34h.08v1.22h-.09c-.45-.03-.88.03-1.23.18-.37.14-.71.36-.97.62-.26.26-.48.58-.65.94-.16.38-.24.81-.21,1.2v4.62s-1.22,0-1.22,0v-8.65l1.14-.03v1.72c.25-.52.64-.98,1.11-1.31.59-.39,1.29-.57,2.04-.51ZM199.23,16.54h.08v.97h-1.71v5.63c0,.32.04.57.13.77.07.16.29.26.62.28.27,0,.53-.02.8-.05h.16s0,1.05,0,1.05h-.08c-.14,0-.3,0-.46.03-.17.03-.32.03-.48.03-.71,0-1.2-.14-1.5-.44-.3-.3-.44-.82-.41-1.55v-5.71h-1.49v-1.05h1.49v-2.54h1.22v2.54h1.63v.06Z"/>
    <path class="cls-2" d="M189.92,29.96h.56v4.26h-.63l-2.36-3.41v3.41h-.56v-4.17h.06v-.08h.54l2.39,3.41v-3.41ZM184.23,31.76h-2.12v-1.8h-.56v4.26h.56v-1.96h2.12v1.96h.56v-4.28h-.56v1.82ZM172.28,32.28h1.99v-.53h-1.99v-1.3h2.13v-.53h-2.68v4.28h2.77v-.53h-2.21v-1.41ZM179.41,33.3c-.04.09-.11.16-.23.25-.07.07-.17.12-.28.18-.1.05-.2.08-.3.1-.06,0-.11,0-.17.01-.27.03-.56-.01-.84-.12-.22-.08-.38-.23-.52-.37-.15-.15-.25-.32-.34-.55-.16-.45-.16-.93,0-1.38.09-.23.19-.4.34-.55.14-.14.3-.29.52-.37.23-.09.47-.13.69-.13.17,0,.38.05.58.13.2.08.35.2.45.38l.05.09.44-.4-.05-.06c-.17-.22-.4-.4-.68-.53-.29-.1-.55-.14-.8-.14-.31,0-.6.06-.88.17-.24.08-.46.23-.7.46-.17.17-.32.4-.46.72-.12.29-.17.58-.17.89s.06.61.17.89c.14.31.29.54.46.72.19.19.41.34.69.46.29.12.58.17.89.17.29,0,.57-.06.87-.17.31-.16.56-.37.72-.61l.05-.08-.46-.25-.04.08ZM196.58,31.2c.11.28.17.59.17.89s-.06.6-.17.89c-.14.32-.29.55-.46.72-.23.23-.46.38-.7.46-.28.11-.58.17-.88.17s-.6-.06-.89-.17c-.28-.12-.51-.27-.69-.46-.17-.17-.32-.4-.46-.72-.14-.28-.2-.6-.17-.89,0-.31.06-.6.17-.88.14-.32.29-.55.46-.72.23-.23.46-.38.7-.46.57-.23,1.2-.23,1.77,0,.28.13.5.27.69.46.2.2.34.43.46.72ZM196.09,31.4c-.09-.23-.19-.4-.34-.55-.14-.14-.3-.29-.52-.37-.23-.09-.46-.14-.7-.14s-.46.05-.67.14c-.22.08-.38.23-.53.37s-.25.32-.34.55c-.09.25-.13.48-.11.68h0c0,.28.03.51.11.7.09.23.19.4.34.55s.3.29.52.37c.45.19.95.19,1.37,0,.22-.08.38-.23.53-.37.15-.15.25-.32.34-.55.16-.45.16-.93,0-1.38ZM166.72,30.46h1.41v3.76h.56v-3.76h1.41v-.53h-3.37v.53ZM214.31,34.22h.56v-4.28h-.56v4.28ZM217.52,32.28h1.99v-.53h-1.99v-1.3h2.13v-.53h-2.68v4.28h2.77v-.53h-2.21v-1.41ZM223.96,32.4c-.1-.13-.22-.26-.41-.35-.14-.07-.3-.12-.44-.17l-.1-.03c-.2-.06-.36-.11-.52-.16-.14-.06-.26-.14-.35-.22-.1-.12-.15-.26-.15-.42,0-.1.02-.2.07-.29.06-.11.1-.18.16-.21.03-.01.06-.03.08-.04.07-.04.13-.07.2-.09.14-.03.26-.05.34-.05.17,0,.32.03.43.1.13.08.23.15.3.27l.05.08.48-.36-.06-.07c-.16-.19-.34-.33-.53-.41-.35-.16-.79-.18-1.2-.06-.14.06-.29.14-.43.23-.27.21-.42.53-.42.9,0,.17.03.35.09.53.06.15.15.27.27.36.08.11.2.16.31.21l.05.02c.07.03.14.06.22.08.06.02.11.04.17.06l.38.13.33.17c.11.05.18.13.21.18.05.09.07.21.07.32,0,.1-.02.2-.07.28-.01.02-.02.04-.04.06-.04.07-.08.13-.14.17-.11.08-.18.13-.27.15-.14.03-.25.05-.34.05-.21,0-.4-.07-.51-.13-.15-.07-.27-.2-.35-.35l-.04-.09-.48.32.05.07c.15.22.37.39.62.5.24.09.53.14.78.14.17,0,.35-.03.52-.09.16-.05.32-.11.44-.23.13-.1.25-.25.3-.39.08-.16.12-.34.12-.53,0-.23-.06-.44-.18-.66ZM209.4,30.85c.14-.14.3-.29.52-.37.23-.09.47-.13.69-.13.11,0,.21,0,.31.03.11.03.21.05.31.1.11.05.22.11.29.16.08.05.15.1.2.17l.06.09.41-.41-.06-.06c-.45-.42-1-.63-1.55-.6-.3,0-.61.06-.88.17-.24.08-.46.23-.7.46-.21.21-.38.47-.46.72-.12.29-.17.58-.17.89s.06.61.17.89c.14.32.29.54.46.72.19.19.41.33.69.46.29.12.58.17.89.17.26,0,.55-.03.79-.08.33-.07.58-.17.77-.29l.04-.02v-2.06h-1.55v.53h1.02v1.24c-.15.07-.29.14-.45.16-.19.03-.38.05-.6.05s-.46-.05-.69-.13c-.22-.08-.38-.22-.52-.37-.15-.15-.25-.32-.34-.55-.16-.45-.16-.93,0-1.38.09-.23.19-.4.34-.55ZM199.15,29.96h-.56v4.26h2.46v-.53h-1.91v-3.73ZM206.63,31.2c.11.28.17.59.17.89s-.06.6-.17.89c-.14.32-.29.55-.46.72-.23.23-.46.38-.7.46-.28.11-.58.17-.88.17s-.6-.06-.89-.17c-.28-.12-.51-.27-.69-.46-.17-.17-.32-.4-.46-.72-.11-.28-.17-.59-.17-.89s.06-.6.17-.89c.14-.32.29-.55.46-.72.23-.23.46-.38.7-.46.57-.23,1.2-.23,1.77,0,.28.13.5.27.69.46.2.2.34.43.46.72ZM206.14,31.4c-.09-.23-.19-.4-.34-.55-.14-.14-.3-.29-.52-.37-.23-.09-.46-.14-.7-.14s-.46.05-.67.14c-.22.08-.38.23-.53.37s-.25.32-.34.55c-.07.19-.11.41-.11.69s.03.5.11.69c.09.23.19.4.34.55.14.14.3.29.52.37.45.19.95.19,1.37,0,.22-.08.38-.23.53-.37.15-.15.25-.32.34-.55.16-.45.16-.93,0-1.38Z"/>
  </g>
  <path class="cls-1" d="M93.6,19.08h1.02l-.75,6.04h-1.01l.32-2.64h-2.57l-.32,2.64h-1.01l.74-6.04h1.01l-.32,2.6h2.57l.32-2.6ZM95.65,25.12h-.79l2.96-6.04h.95l1.48,6.04h-.74c-.1,0-.18-.03-.24-.08-.06-.05-.09-.11-.12-.19l-.3-1.32h-2.17l-.63,1.34c-.03.07-.08.13-.15.18-.07.05-.15.08-.24.08ZM98.67,22.72l-.5-2.24s-.01-.08-.02-.12l-.06.15-1.04,2.22h1.62ZM103.5,25.01c.27-.11.49-.27.68-.46s.33-.42.43-.68c.1-.26.15-.53.15-.82,0-.22-.04-.41-.11-.56-.07-.15-.17-.29-.28-.4-.11-.11-.25-.2-.39-.27-.14-.07-.28-.13-.42-.19-.14-.06-.28-.11-.41-.16-.13-.05-.24-.11-.34-.17-.09-.06-.16-.13-.22-.21-.05-.07-.08-.17-.08-.28,0-.13.02-.25.06-.35.04-.11.1-.2.18-.28s.18-.15.3-.19c.12-.05.26-.07.41-.07s.28.02.38.06c.1.04.19.09.27.14.07.05.14.1.18.14.14.13.3.13.4.05.04-.03.07-.06.11-.11l.28-.4-.06-.07c-.17-.21-.38-.38-.63-.5-.25-.12-.54-.18-.85-.18s-.59.05-.84.16c-.25.11-.46.25-.63.43-.17.18-.31.39-.4.62-.09.23-.14.48-.14.73,0,.23.04.43.11.59.07.16.17.3.28.41.11.11.25.2.39.27.14.07.28.13.42.18.14.05.28.1.41.15.13.05.24.1.34.16.09.06.16.13.22.21.05.08.08.18.08.3,0,.16-.03.31-.08.44-.05.13-.12.24-.21.33-.09.09-.2.17-.34.22-.13.05-.29.08-.46.08-.18,0-.34-.03-.45-.08-.12-.06-.23-.12-.31-.19-.09-.07-.16-.14-.22-.19-.14-.15-.3-.16-.43-.08-.05.03-.09.06-.12.11l-.32.44.06.08c.19.25.43.44.71.59.29.14.62.22.98.22.33,0,.63-.06.89-.17ZM83.64,32.11c-.03.24-.07.44-.14.59-.06.15-.14.28-.23.37-.08.09-.18.16-.28.19-.11.04-.23.06-.35.06-.07,0-.14,0-.19,0-.05,0-.1-.01-.14-.02l-.12-.02s-.08-.01-.12-.01c-.12,0-.18.05-.22.09-.04.05-.06.1-.08.17l-.07.55.1.03c.13.04.26.07.39.09.13.02.27.03.42.03.28,0,.54-.05.77-.14.23-.09.43-.23.61-.41.17-.18.31-.4.42-.66.1-.26.18-.55.22-.88l.49-4.01h-1.01l-.49,4ZM91.51,29.66c.11.32.17.68.17,1.06,0,.51-.08.98-.24,1.4-.16.43-.38.8-.66,1.11-.28.31-.62.55-1,.73-.38.17-.81.26-1.26.26-.37,0-.71-.07-1.01-.2-.3-.13-.56-.32-.77-.56-.21-.24-.37-.52-.49-.85-.11-.32-.17-.68-.17-1.06,0-.51.08-.98.24-1.4.16-.43.38-.8.66-1.11.28-.31.62-.56,1.01-.73.39-.17.81-.26,1.26-.26.37,0,.71.07,1.01.2.3.13.56.32.77.56.21.24.37.52.48.85ZM89.42,33.15c.25-.12.46-.29.64-.51.18-.22.32-.5.42-.81.1-.32.15-.69.15-1.09,0-.28-.04-.53-.11-.76-.07-.22-.17-.41-.3-.57-.13-.15-.28-.27-.46-.35-.18-.08-.39-.13-.62-.13-.3,0-.57.06-.82.18-.25.12-.46.29-.64.51-.18.22-.33.5-.43.82-.1.32-.15.69-.15,1.09,0,.28.04.53.11.76.07.22.17.41.3.56.13.15.28.27.46.35.18.08.39.12.62.12.3,0,.58-.06.83-.18ZM92.66,34.15h1.01l.74-6.04h-1.01l-.74,6.04ZM99.28,32.37l-2.3-4.07c-.04-.07-.09-.12-.14-.15-.05-.03-.11-.04-.21-.04h-.5l-.74,6.04h.92l.52-4.28,2.31,4.09c.05.06.09.11.15.14.06.04.13.05.22.05h.49l.75-6.04h-.92l-.53,4.26ZM101.7,34.15h3.56l.11-.87h-2.54l.22-1.76h2.04l.11-.85h-2.05l.21-1.7h2.54l.11-.87h-3.55l-.74,6.04ZM111.91,30.72c0,.51-.08.97-.24,1.39-.16.42-.38.78-.66,1.08-.28.3-.62.54-1,.7-.38.16-.81.25-1.26.25h-2.14l.74-6.04h2.11c.37,0,.71.06,1.01.19.3.13.56.31.77.54.21.23.38.51.49.83.11.32.17.67.17,1.05ZM109.66,33.12c.25-.11.46-.28.64-.5.18-.22.32-.49.42-.8.1-.32.15-.68.15-1.08,0-.28-.03-.53-.1-.75-.07-.22-.17-.4-.29-.55-.13-.15-.28-.26-.46-.34-.18-.08-.39-.12-.62-.12h-1.13l-.53,4.31h1.1c.3,0,.58-.06.83-.17Z"/>
  <g>
    <path class="cls-3" d="M48.99,27.27h-2.32c-2.38,0-4.32-1.84-4.32-4.1v-6.94h2.32c2.38,0,4.32,1.84,4.32,4.1v6.94ZM40.69,27.27h-2.32c-2.38,0-4.32-1.84-4.32-4.1v-11.66c0-.87-.74-1.58-1.66-1.58h-2.32v-1.58h6.31c2.38,0,4.32,1.84,4.32,4.1v14.82h0ZM44.24,1.71h-21.65v20.57c0,6.43,5.48,11.63,12.25,11.63h21.65V13.35c0-6.43-5.48-11.63-12.25-11.63Z"/>
    <path class="cls-2" d="M2.25,45.16v-6.81h.98v2.45s.32-.28.47-.38c.15-.1.32-.18.51-.24.19-.06.4-.08.62-.08.32,0,.59.05.83.17.24.11.43.29.56.53.14.25.2.58.2.99v3.38h-.98v-3.23c0-.19-.02-.35-.07-.47-.05-.13-.12-.23-.2-.3-.09-.08-.19-.13-.31-.16-.12-.03-.25-.05-.4-.05-.23,0-.43.05-.62.16-.19.11-.34.26-.45.45-.11.19-.17.43-.17.7v2.9h-.98ZM9.1,45.27c-.48,0-.87-.13-1.16-.38-.3-.25-.44-.69-.44-1.31v-3.38h.98v3.23c0,.19.02.35.07.47.05.13.11.23.2.3.09.08.19.13.31.16.12.03.25.05.4.05.23,0,.43-.05.62-.17.19-.11.34-.26.45-.46.11-.2.17-.43.17-.68v-2.9h.98v4.96h-.9l-.05-.71c-.12.18-.26.33-.42.45-.16.12-.35.21-.54.27-.2.06-.42.09-.66.09h0ZM12.79,45.16v-4.96h.88v.71s.32-.33.47-.45c.15-.12.32-.21.5-.27.19-.06.39-.09.6-.09.31,0,.58.06.81.19.23.13.4.34.52.63h.07c.11-.18.25-.33.4-.45.15-.12.32-.21.51-.28.19-.06.4-.09.62-.09.3,0,.56.05.78.16.23.1.41.28.54.52.13.24.2.56.2.97v3.43h-.98v-3.25c0-.19-.02-.34-.07-.47-.04-.12-.1-.22-.18-.29-.08-.07-.17-.12-.27-.16-.11-.03-.22-.05-.35-.05-.21,0-.39.05-.56.17-.16.11-.3.26-.4.46-.1.2-.15.42-.15.69v2.9h-.98v-3.25c0-.19-.02-.34-.07-.47-.04-.12-.1-.22-.18-.29-.08-.07-.17-.12-.27-.16s-.22-.05-.34-.05c-.21,0-.4.05-.57.17-.17.11-.31.26-.41.46-.1.2-.15.42-.15.69v2.9h-.98s0,0,0,0ZM20.79,45.16v-4.96h.9v.71s.31-.33.46-.45c.15-.12.32-.21.5-.27.19-.06.39-.09.6-.09.31,0,.58.06.81.19.23.13.4.34.52.63h.07c.11-.18.25-.33.4-.45.15-.12.32-.21.51-.28.19-.06.4-.09.62-.09.3,0,.56.05.78.16.23.1.41.28.54.52.13.24.2.56.2.97v3.43h-.98v-3.25c0-.19-.02-.34-.07-.47-.04-.12-.1-.22-.18-.29-.08-.07-.17-.12-.27-.16-.11-.03-.22-.05-.35-.05-.21,0-.39.05-.56.17-.16.11-.3.26-.4.46-.1.2-.15.42-.15.69v2.9h-.98v-3.25c0-.19-.02-.34-.07-.47-.04-.12-.1-.22-.18-.29-.08-.07-.17-.12-.27-.16-.11-.03-.22-.05-.34-.05-.21,0-.4.05-.57.17-.17.11-.31.26-.41.46-.1.2-.15.42-.15.69v2.9h-.98ZM28.79,38.85v-.02c0-.27.22-.49.49-.49s.49.22.49.49v.02c0,.27-.22.49-.49.49s-.49-.22-.49-.49ZM28.79,45.16v-4.96h.98v4.96h-.98ZM30.89,45.16v-4.96h.9v.71s.33-.33.49-.45c.16-.12.35-.21.54-.27.2-.06.42-.09.66-.09.31,0,.59.05.83.17.24.11.43.29.56.53.14.25.2.58.2.99v3.38h-.98v-3.23c0-.19-.02-.35-.07-.47-.05-.13-.12-.23-.2-.3-.09-.08-.19-.13-.31-.16-.12-.03-.25-.05-.4-.05-.23,0-.43.05-.62.17-.19.11-.34.26-.45.46-.11.2-.17.42-.17.69v2.9h-.98ZM36.98,46.87c-.23,0-.44-.05-.64-.14-.2-.09-.36-.23-.48-.41s-.18-.39-.18-.64c0-.28.08-.5.23-.67.15-.17.34-.3.54-.39-.15-.07-.27-.17-.36-.3-.09-.13-.14-.28-.14-.45,0-.23.09-.42.26-.57.17-.14.37-.24.59-.28-.22-.14-.39-.33-.51-.55-.12-.22-.18-.47-.18-.74,0-.33.08-.62.24-.86.16-.24.39-.43.7-.57.31-.14.69-.21,1.14-.21.19,0,.38.01.55.04.17.03.33.07.47.12.21-.25.28-.35.45-.59h.96c-.2.2-.56.69-.82.94.16.14.28.31.35.5.08.19.12.4.12.63,0,.33-.08.61-.23.86-.15.25-.38.44-.69.58-.31.14-.68.21-1.13.21h-.78c-.15,0-.27.03-.36.09-.09.06-.14.16-.14.28,0,.11.04.19.13.26.09.07.2.1.35.1h2.1c.36,0,.67.12.91.36.24.24.36.55.36.93,0,.28-.07.53-.21.75-.14.22-.34.4-.59.53-.26.13-.55.19-.88.19h-2.13ZM37.31,46.15h1.81c.13,0,.25-.03.36-.08.11-.05.19-.12.26-.21.06-.09.09-.19.09-.31,0-.19-.06-.34-.18-.44-.12-.11-.26-.16-.43-.16h-1.91c-.18,0-.32.06-.44.17-.12.12-.18.26-.18.43s.06.32.18.43c.12.11.27.17.45.17h0ZM38.2,42.66c.37,0,.65-.08.83-.25.18-.17.27-.39.27-.68s-.09-.52-.27-.68c-.18-.16-.46-.24-.83-.24s-.65.08-.83.24c-.18.16-.27.39-.27.68,0,.19.04.35.12.5.08.14.2.25.37.33.17.08.37.11.62.11ZM43.99,45.27c-.33,0-.62-.07-.89-.2-.26-.13-.48-.33-.65-.59v.68h-.95v-6.81h.98v2.46s.29-.3.44-.41c.15-.11.32-.19.51-.24.19-.05.39-.08.61-.08.38,0,.71.09,1,.27.29.18.51.46.68.84.16.38.24.86.24,1.46s-.08,1.11-.24,1.49c-.16.38-.38.67-.68.85-.29.18-.64.27-1.05.27h0ZM43.71,44.42c.28,0,.51-.06.7-.17.18-.11.31-.29.4-.53.09-.24.13-.56.13-.95v-.17c0-.39-.04-.71-.13-.95-.09-.25-.22-.43-.4-.54-.18-.12-.42-.17-.72-.17-.18,0-.35.03-.5.09-.15.06-.28.16-.39.3-.11.13-.19.31-.25.52s-.09.47-.09.77v.13c0,.36.04.66.13.91.09.25.22.44.4.57.18.13.42.19.71.19h0ZM46.86,38.85v-.02c0-.27.22-.49.49-.49s.49.22.49.49v.02c0,.27-.22.49-.49.49s-.49-.22-.49-.49ZM46.86,45.16v-4.96h.98v4.96h-.98ZM48.96,45.16v-4.96h.9v.73s.18-.24.27-.38.21-.25.36-.34c.15-.09.33-.13.54-.13.1,0,.19,0,.27.03.08.02.14.04.18.05v.92h-.33c-.2,0-.38.03-.53.09-.15.06-.28.16-.39.28-.1.12-.18.27-.23.45-.05.18-.07.37-.07.59v2.66h-.98ZM53.88,45.27c-.4,0-.75-.09-1.05-.27-.3-.18-.52-.46-.69-.85-.16-.38-.24-.88-.24-1.49s.08-1.08.25-1.46c.16-.38.39-.66.68-.84.29-.18.62-.27,1-.27.22,0,.42.03.61.08.19.05.36.13.51.24.15.11.44.41.44.41v-2.46h.98v6.81h-.91v-.68s-.44.46-.7.59c-.27.13-.56.2-.88.2h0ZM54.15,44.42c.29,0,.52-.06.7-.19.18-.13.31-.32.4-.57.09-.25.13-.55.13-.91v-.13c0-.3-.03-.56-.09-.77-.06-.21-.14-.39-.25-.52s-.24-.23-.39-.3c-.15-.06-.32-.09-.51-.09-.29,0-.53.06-.71.17-.18.12-.32.3-.4.54-.09.25-.13.56-.13.95v.17c0,.39.04.71.13.95.09.24.22.42.4.53.18.11.41.17.7.17h0ZM57.62,44.63v-.05c0-.29.23-.52.52-.52s.52.23.52.52v.05c0,.29-.23.52-.52.52s-.52-.23-.52-.52ZM61.05,45.27c-.28,0-.51-.05-.67-.17-.16-.11-.27-.25-.34-.42-.07-.17-.1-.36-.1-.55v-3.12h-.62v-.81h.64v-1.39h.96v1.39h.9v.81h-.9v3.01c0,.14.03.25.09.33.06.08.17.11.31.11h.49v.66c-.06.03-.14.05-.23.07-.09.02-.18.04-.28.06-.09.02-.18.02-.26.02h0ZM64.59,45.27c-.51,0-.94-.09-1.28-.28-.34-.19-.6-.47-.78-.85-.18-.38-.26-.87-.26-1.46s.09-1.09.26-1.47c.18-.38.44-.66.78-.85.35-.19.78-.28,1.3-.28.47,0,.87.09,1.19.27.32.18.56.45.72.82.16.36.25.82.25,1.38v.38h-3.49c.01.35.07.65.16.88.09.24.24.41.43.52.19.11.44.17.73.17.18,0,.35-.02.49-.07.14-.05.27-.12.37-.21.1-.09.18-.2.24-.33.06-.13.09-.27.09-.44h.96c0,.3-.05.56-.15.78-.1.23-.25.42-.44.57-.19.15-.42.27-.69.35-.26.08-.56.12-.88.12h0ZM63.3,42.21h2.44c0-.25-.03-.45-.08-.62-.05-.17-.13-.3-.23-.41-.1-.11-.22-.18-.36-.23-.14-.05-.3-.07-.47-.07-.26,0-.49.05-.68.14-.19.09-.33.24-.43.44-.1.2-.16.45-.19.75h0ZM69.7,45.27c-.5,0-.91-.09-1.25-.28-.33-.19-.58-.47-.75-.85s-.25-.87-.25-1.46.09-1.08.26-1.46c.17-.38.42-.66.76-.85.34-.19.75-.28,1.24-.28.34,0,.64.04.89.13.25.08.47.21.64.38.18.17.31.37.39.62.09.25.13.52.13.84h-.99c0-.26-.04-.48-.11-.65-.08-.17-.19-.3-.35-.38-.16-.08-.36-.13-.61-.13s-.49.06-.67.18c-.18.12-.32.31-.42.56-.09.25-.14.57-.14.97v.16c0,.38.05.7.14.96.09.25.23.44.42.57.19.12.42.18.71.18.25,0,.46-.04.61-.14.15-.09.27-.22.35-.4.08-.17.12-.38.12-.63h.95c0,.29-.04.56-.13.8s-.21.44-.39.62c-.17.17-.39.31-.65.4-.26.09-.56.14-.9.14h0ZM72.64,45.16v-6.81h.98v2.45h.07c.12-.15.26-.28.41-.38.15-.1.32-.18.51-.24.19-.06.4-.08.62-.08.32,0,.59.05.83.17.24.11.43.29.56.53.14.25.2.58.2.99v3.38h-.98v-3.23c0-.19-.02-.35-.07-.47-.05-.13-.12-.23-.2-.3-.09-.08-.19-.13-.31-.16s-.25-.05-.4-.05c-.23,0-.43.05-.62.16-.19.11-.34.26-.45.45-.11.19-.17.43-.17.7v2.9h-.98Z"/>
  </g>
</svg>